<mxfile host="app.diagrams.net" modified="2022-08-14T14:26:13.173Z" agent="5.0 (Windows NT 10.0; Win64; x64) AppleWebKit/537.36 (KHTML, like Gecko) Chrome/104.0.0.0 Safari/537.36" etag="cB5xfqeoHYru6SzEVXia" version="20.2.3" type="github">
  <diagram id="yW_LlXJDXbxZNyVyAcVI" name="第 1 页">
    <mxGraphModel dx="946" dy="500" grid="0" gridSize="10" guides="1" tooltips="1" connect="1" arrows="1" fold="1" page="1" pageScale="1" pageWidth="827" pageHeight="1169" math="0" shadow="0">
      <root>
        <mxCell id="0" />
        <mxCell id="1" parent="0" />
        <mxCell id="HW2scySGdJAat58xyZpf-2" value="root page" style="rounded=1;whiteSpace=wrap;html=1;fontSize=18;fillColor=#dae8fc;strokeColor=#6c8ebf;" vertex="1" parent="1">
          <mxGeometry x="256" y="98" width="97" height="40" as="geometry" />
        </mxCell>
        <mxCell id="HW2scySGdJAat58xyZpf-3" value="internal page" style="rounded=1;whiteSpace=wrap;html=1;fontSize=18;fillColor=#dae8fc;strokeColor=#6c8ebf;" vertex="1" parent="1">
          <mxGeometry x="104" y="171" width="115" height="40" as="geometry" />
        </mxCell>
        <mxCell id="HW2scySGdJAat58xyZpf-6" value="internal page" style="rounded=1;whiteSpace=wrap;html=1;fontSize=18;fillColor=#dae8fc;strokeColor=#6c8ebf;" vertex="1" parent="1">
          <mxGeometry x="247" y="171" width="115" height="40" as="geometry" />
        </mxCell>
        <mxCell id="HW2scySGdJAat58xyZpf-7" value="internal page" style="rounded=1;whiteSpace=wrap;html=1;fontSize=18;fillColor=#dae8fc;strokeColor=#6c8ebf;" vertex="1" parent="1">
          <mxGeometry x="394" y="171" width="115" height="40" as="geometry" />
        </mxCell>
        <mxCell id="HW2scySGdJAat58xyZpf-12" value="" style="endArrow=classic;html=1;rounded=0;fontSize=18;entryX=0.5;entryY=0;entryDx=0;entryDy=0;" edge="1" parent="1" target="HW2scySGdJAat58xyZpf-3">
          <mxGeometry width="50" height="50" relative="1" as="geometry">
            <mxPoint x="304" y="139" as="sourcePoint" />
            <mxPoint x="75" y="331" as="targetPoint" />
          </mxGeometry>
        </mxCell>
        <mxCell id="HW2scySGdJAat58xyZpf-13" value="" style="endArrow=classic;html=1;rounded=0;fontSize=18;entryX=0.5;entryY=0;entryDx=0;entryDy=0;exitX=0.5;exitY=1;exitDx=0;exitDy=0;" edge="1" parent="1" source="HW2scySGdJAat58xyZpf-2" target="HW2scySGdJAat58xyZpf-6">
          <mxGeometry width="50" height="50" relative="1" as="geometry">
            <mxPoint x="265" y="146" as="sourcePoint" />
            <mxPoint x="171.5" y="181" as="targetPoint" />
          </mxGeometry>
        </mxCell>
        <mxCell id="HW2scySGdJAat58xyZpf-14" value="" style="endArrow=classic;html=1;rounded=0;fontSize=18;entryX=0.5;entryY=0;entryDx=0;entryDy=0;" edge="1" parent="1" target="HW2scySGdJAat58xyZpf-7">
          <mxGeometry width="50" height="50" relative="1" as="geometry">
            <mxPoint x="305" y="138" as="sourcePoint" />
            <mxPoint x="314.5" y="181" as="targetPoint" />
          </mxGeometry>
        </mxCell>
        <mxCell id="HW2scySGdJAat58xyZpf-16" value="leaf page" style="rounded=1;whiteSpace=wrap;html=1;fontSize=18;fillColor=#dae8fc;strokeColor=#6c8ebf;" vertex="1" parent="1">
          <mxGeometry x="256" y="273" width="115" height="40" as="geometry" />
        </mxCell>
        <mxCell id="HW2scySGdJAat58xyZpf-17" value="leaf page" style="rounded=1;whiteSpace=wrap;html=1;fontSize=18;fillColor=#dae8fc;strokeColor=#6c8ebf;" vertex="1" parent="1">
          <mxGeometry x="394" y="273" width="115" height="40" as="geometry" />
        </mxCell>
        <mxCell id="HW2scySGdJAat58xyZpf-23" style="edgeStyle=orthogonalEdgeStyle;rounded=0;orthogonalLoop=1;jettySize=auto;html=1;entryX=0.5;entryY=0;entryDx=0;entryDy=0;fontSize=18;" edge="1" parent="1" source="HW2scySGdJAat58xyZpf-18">
          <mxGeometry relative="1" as="geometry">
            <mxPoint x="595.5" y="359.9999999999999" as="targetPoint" />
          </mxGeometry>
        </mxCell>
        <mxCell id="HW2scySGdJAat58xyZpf-18" value="leaf page" style="rounded=1;whiteSpace=wrap;html=1;fontSize=18;fillColor=#dae8fc;strokeColor=#6c8ebf;" vertex="1" parent="1">
          <mxGeometry x="538" y="273" width="115" height="40" as="geometry" />
        </mxCell>
        <mxCell id="HW2scySGdJAat58xyZpf-19" value="" style="endArrow=classic;html=1;rounded=0;fontSize=18;entryX=0.5;entryY=0;entryDx=0;entryDy=0;exitX=0.5;exitY=1;exitDx=0;exitDy=0;" edge="1" parent="1" source="HW2scySGdJAat58xyZpf-7" target="HW2scySGdJAat58xyZpf-16">
          <mxGeometry width="50" height="50" relative="1" as="geometry">
            <mxPoint x="265" y="146" as="sourcePoint" />
            <mxPoint x="171.5" y="181" as="targetPoint" />
          </mxGeometry>
        </mxCell>
        <mxCell id="HW2scySGdJAat58xyZpf-20" value="" style="endArrow=classic;html=1;rounded=0;fontSize=18;" edge="1" parent="1">
          <mxGeometry width="50" height="50" relative="1" as="geometry">
            <mxPoint x="452" y="214" as="sourcePoint" />
            <mxPoint x="452" y="272" as="targetPoint" />
          </mxGeometry>
        </mxCell>
        <mxCell id="HW2scySGdJAat58xyZpf-21" value="" style="endArrow=classic;html=1;rounded=0;fontSize=18;exitX=0.5;exitY=1;exitDx=0;exitDy=0;entryX=0.5;entryY=0;entryDx=0;entryDy=0;" edge="1" parent="1" source="HW2scySGdJAat58xyZpf-7" target="HW2scySGdJAat58xyZpf-18">
          <mxGeometry width="50" height="50" relative="1" as="geometry">
            <mxPoint x="462" y="224" as="sourcePoint" />
            <mxPoint x="462" y="282" as="targetPoint" />
          </mxGeometry>
        </mxCell>
        <mxCell id="HW2scySGdJAat58xyZpf-24" value="" style="shape=table;html=1;whiteSpace=wrap;startSize=0;container=1;collapsible=0;childLayout=tableLayout;fontSize=18;fillColor=#d5e8d4;strokeColor=#82b366;" vertex="1" parent="1">
          <mxGeometry x="463" y="362" width="261" height="40" as="geometry" />
        </mxCell>
        <mxCell id="HW2scySGdJAat58xyZpf-25" value="" style="shape=tableRow;horizontal=0;startSize=0;swimlaneHead=0;swimlaneBody=0;top=0;left=0;bottom=0;right=0;collapsible=0;dropTarget=0;fillColor=none;points=[[0,0.5],[1,0.5]];portConstraint=eastwest;fontSize=18;" vertex="1" parent="HW2scySGdJAat58xyZpf-24">
          <mxGeometry width="261" height="40" as="geometry" />
        </mxCell>
        <mxCell id="HW2scySGdJAat58xyZpf-26" value="&lt;font style=&quot;font-size: 14px;&quot;&gt;page header&lt;/font&gt;" style="shape=partialRectangle;html=1;whiteSpace=wrap;connectable=0;fillColor=none;top=0;left=0;bottom=0;right=0;overflow=hidden;fontSize=18;" vertex="1" parent="HW2scySGdJAat58xyZpf-25">
          <mxGeometry width="87" height="40" as="geometry">
            <mxRectangle width="87" height="40" as="alternateBounds" />
          </mxGeometry>
        </mxCell>
        <mxCell id="HW2scySGdJAat58xyZpf-37" value="&lt;span style=&quot;font-size: 14px;&quot;&gt;block header&lt;/span&gt;" style="shape=partialRectangle;html=1;whiteSpace=wrap;connectable=0;fillColor=#d5e8d4;top=0;left=0;bottom=0;right=0;overflow=hidden;fontSize=18;strokeColor=#82b366;" vertex="1" parent="HW2scySGdJAat58xyZpf-25">
          <mxGeometry x="87" width="87" height="40" as="geometry">
            <mxRectangle width="87" height="40" as="alternateBounds" />
          </mxGeometry>
        </mxCell>
        <mxCell id="HW2scySGdJAat58xyZpf-38" value="&lt;span style=&quot;font-size: 14px;&quot;&gt;extent data&lt;/span&gt;" style="shape=partialRectangle;html=1;whiteSpace=wrap;connectable=0;fillColor=none;top=0;left=0;bottom=0;right=0;overflow=hidden;fontSize=18;" vertex="1" parent="HW2scySGdJAat58xyZpf-25">
          <mxGeometry x="174" width="87" height="40" as="geometry">
            <mxRectangle width="87" height="40" as="alternateBounds" />
          </mxGeometry>
        </mxCell>
        <mxCell id="HW2scySGdJAat58xyZpf-39" value="" style="endArrow=none;dashed=1;html=1;dashPattern=1 3;strokeWidth=1;rounded=0;fontSize=14;" edge="1" parent="1">
          <mxGeometry width="50" height="50" relative="1" as="geometry">
            <mxPoint x="28" y="339" as="sourcePoint" />
            <mxPoint x="774" y="332" as="targetPoint" />
          </mxGeometry>
        </mxCell>
        <mxCell id="HW2scySGdJAat58xyZpf-40" value="&lt;b&gt;extent&lt;/b&gt;" style="text;html=1;strokeColor=none;fillColor=none;align=center;verticalAlign=middle;whiteSpace=wrap;rounded=0;fontSize=14;" vertex="1" parent="1">
          <mxGeometry x="397" y="367" width="60" height="30" as="geometry" />
        </mxCell>
        <mxCell id="HW2scySGdJAat58xyZpf-41" value="&lt;ul style=&quot;line-height: 1.4;&quot;&gt;&lt;li&gt;页面类型&lt;/li&gt;&lt;li&gt;KV个数&lt;/li&gt;&lt;li&gt;行列存储&lt;/li&gt;&lt;/ul&gt;" style="text;strokeColor=none;fillColor=none;html=1;whiteSpace=wrap;verticalAlign=middle;overflow=hidden;fontSize=14;" vertex="1" parent="1">
          <mxGeometry x="438" y="392" width="118" height="84" as="geometry" />
        </mxCell>
        <mxCell id="HW2scySGdJAat58xyZpf-42" value="&lt;ul style=&quot;line-height: 1.4;&quot;&gt;&lt;li&gt;总长度&lt;/li&gt;&lt;li&gt;校验和&lt;/li&gt;&lt;li&gt;对齐&lt;/li&gt;&lt;/ul&gt;" style="text;strokeColor=none;fillColor=none;html=1;whiteSpace=wrap;verticalAlign=middle;overflow=hidden;fontSize=14;" vertex="1" parent="1">
          <mxGeometry x="530" y="392" width="118" height="84" as="geometry" />
        </mxCell>
        <mxCell id="HW2scySGdJAat58xyZpf-43" value="&lt;ul style=&quot;line-height: 1.4;&quot;&gt;&lt;li&gt;cell_0&lt;/li&gt;&lt;li&gt;cell_1&lt;/li&gt;&lt;li&gt;cell_n&lt;/li&gt;&lt;/ul&gt;" style="text;strokeColor=none;fillColor=none;html=1;whiteSpace=wrap;verticalAlign=middle;overflow=hidden;fontSize=14;" vertex="1" parent="1">
          <mxGeometry x="616" y="392" width="118" height="84" as="geometry" />
        </mxCell>
        <mxCell id="HW2scySGdJAat58xyZpf-44" value="&lt;font style=&quot;font-size: 17px; font-weight: normal;&quot;&gt;memory&lt;/font&gt;" style="text;strokeColor=none;fillColor=none;html=1;fontSize=17;fontStyle=1;verticalAlign=middle;align=center;" vertex="1" parent="1">
          <mxGeometry x="32" y="294" width="100" height="40" as="geometry" />
        </mxCell>
        <mxCell id="HW2scySGdJAat58xyZpf-45" value="&lt;font style=&quot;font-size: 17px; font-weight: normal;&quot;&gt;disk&lt;/font&gt;" style="text;strokeColor=none;fillColor=none;html=1;fontSize=17;fontStyle=1;verticalAlign=middle;align=center;" vertex="1" parent="1">
          <mxGeometry x="31" y="342" width="100" height="40" as="geometry" />
        </mxCell>
      </root>
    </mxGraphModel>
  </diagram>
</mxfile>
